<svg xmlns="http://www.w3.org/2000/svg" xmlns:xlink="http://www.w3.org/1999/xlink" width="500" zoomAndPan="magnify" viewBox="0 0 375 374.999991" height="500" preserveAspectRatio="xMidYMid meet" version="1.0"><defs><clipPath id="e4b10e1ef5"><path d="M 26.796875 26.796875 L 348.546875 26.796875 L 348.546875 348.546875 L 26.796875 348.546875 Z M 26.796875 26.796875 " clip-rule="nonzero"/></clipPath></defs><g clip-path="url(#e4b10e1ef5)"><path fill="#0097b2" d="M 348.195312 187.496094 C 348.195312 276.277344 276.277344 348.195312 187.496094 348.195312 C 98.710938 348.195312 26.796875 276.277344 26.796875 187.496094 C 26.796875 98.710938 98.710938 26.796875 187.496094 26.796875 C 276.277344 26.796875 348.195312 98.710938 348.195312 187.496094 Z M 348.195312 187.496094 " fill-opacity="1" fill-rule="evenodd"/></g><path fill="#ffffff" d="M 187.496094 199.855469 C 153.371094 199.855469 125.6875 172.171875 125.6875 138.046875 C 125.6875 103.925781 153.371094 76.242188 187.496094 76.242188 C 221.617188 76.242188 249.300781 103.925781 249.300781 138.046875 C 249.300781 172.171875 221.617188 199.855469 187.496094 199.855469 Z M 71.21875 257.992188 C 71.347656 256.898438 71.800781 255.867188 72.507812 254.96875 C 87.765625 235.910156 111.84375 224.578125 144.230469 224.578125 L 230.761719 224.578125 C 263.144531 224.578125 287.222656 235.910156 302.480469 254.96875 C 303.191406 255.867188 303.640625 256.898438 303.769531 257.992188 C 279.949219 297.265625 236.8125 323.472656 187.496094 323.472656 C 138.175781 323.472656 95.042969 297.265625 71.21875 257.992188 Z M 71.21875 257.992188 " fill-opacity="1" fill-rule="evenodd"/></svg>